<svg width="137.6" height="71.6" viewBox="0 0 137.6 71.6" xmlns="http://www.w3.org/2000/svg"><g id="svgGroup" stroke-linecap="round" fill-rule="evenodd" font-size="9pt" stroke="#000" stroke-width="0.25mm" fill="#000" style="stroke:#000;stroke-width:0.25mm;fill:#000"><path d="M 9 70.8 L 0 70.8 L 0 0.8 L 13.3 0.8 L 32.7 45.1 L 51.8 0.8 L 65.4 0.8 L 65.4 70.8 L 55.9 70.8 L 55.9 12.9 L 37.2 55 L 27.8 55 L 9 12.9 L 9 70.8 Z M 83.4 70.6 L 83.4 1 Q 88.1 0.5 92.6 0.25 A 151.31 151.31 0 0 1 96.786 0.08 Q 99.638 0 102.9 0 A 48.608 48.608 0 0 1 110.244 0.527 Q 114.178 1.129 117.51 2.418 A 29.198 29.198 0 0 1 118.45 2.8 A 30.978 30.978 0 0 1 125.739 7.121 A 27.223 27.223 0 0 1 129.25 10.5 Q 133.5 15.4 135.55 21.85 A 44.256 44.256 0 0 1 137.522 32.846 A 51.506 51.506 0 0 1 137.6 35.7 A 45.309 45.309 0 0 1 136.119 47.398 A 41.802 41.802 0 0 1 135.5 49.5 Q 133.4 56 129.05 60.95 Q 124.7 65.9 117.95 68.75 Q 111.675 71.4 103.109 71.586 A 60.192 60.192 0 0 1 101.8 71.6 A 186.98 186.98 0 0 1 97.729 71.558 Q 95.715 71.514 93.922 71.425 A 101.5 101.5 0 0 1 91.85 71.3 Q 87.6 71 83.4 70.6 Z M 92.9 8.7 L 92.9 62.8 Q 95 63.1 97.3 63.2 A 107.265 107.265 0 0 0 100.863 63.294 A 121.297 121.297 0 0 0 102.1 63.3 A 37.906 37.906 0 0 0 108.264 62.829 Q 113.193 62.015 116.8 59.8 Q 122.5 56.3 125.2 50.05 A 32.292 32.292 0 0 0 127.454 41.976 A 42.502 42.502 0 0 0 127.9 35.7 Q 127.9 28.5 125.2 22.2 Q 122.5 15.9 116.9 12.05 A 20.895 20.895 0 0 0 109.848 8.991 Q 107.007 8.312 103.696 8.216 A 38.008 38.008 0 0 0 102.6 8.2 Q 99.7 8.2 97.3 8.35 Q 94.9 8.5 92.9 8.7 Z" vector-effect="non-scaling-stroke"/></g></svg>